<?xml version="1.0" encoding="UTF-8" standalone="no"?>
<!-- Generator: Adobe Illustrator 26.3.1, SVG Export Plug-In . SVG Version: 6.00 Build 0)  -->

<svg
   version="1.1"
   id="Layer_1"
   x="0px"
   y="0px"
   width="184.52478"
   height="127.55972"
   viewBox="0 0 184.52478 127.55972"
   xml:space="preserve"
   sodipodi:docname="logo.svg"
   inkscape:version="1.2.1 (ef4d3fba62, 2022-07-19, custom)"
   xmlns:inkscape="http://www.inkscape.org/namespaces/inkscape"
   xmlns:sodipodi="http://sodipodi.sourceforge.net/DTD/sodipodi-0.dtd"
   xmlns="http://www.w3.org/2000/svg"
   xmlns:svg="http://www.w3.org/2000/svg"><defs
   id="defs43" /><sodipodi:namedview
   id="namedview41"
   pagecolor="#ffffff"
   bordercolor="#111111"
   borderopacity="1"
   inkscape:showpageshadow="0"
   inkscape:pageopacity="0"
   inkscape:pagecheckerboard="1"
   inkscape:deskcolor="#d1d1d1"
   showgrid="false"
   showguides="false"
   inkscape:zoom="2.864615"
   inkscape:cx="21.643397"
   inkscape:cy="42.763164"
   inkscape:window-width="1858"
   inkscape:window-height="1016"
   inkscape:window-x="62"
   inkscape:window-y="27"
   inkscape:window-maximized="1"
   inkscape:current-layer="Layer_1" />
<style
   type="text/css"
   id="style18">
	.st0{fill:#BE1E2D;stroke:#000000;stroke-width:3;stroke-linecap:round;stroke-linejoin:round;stroke-miterlimit:10;}
</style>
<g
   id="g32"
   transform="translate(-34.33,-39.92028)">
	<path
   d="m 154.04,57.45 c -0.26,0.04 -0.64,-0.27 -0.87,-0.64 -0.23,-0.34 -0.19,-0.64 0.08,-0.64 4.35,-0.19 9.3,-2.53 13.01,-5.45 1.82,-1.4 3.29,-2.91 4.24,-4.39 0.95,-1.4 1.36,-2.69 1.1,-3.71 -0.11,-0.3 -0.26,-0.53 -0.49,-0.72 -0.15,-0.15 -0.38,-0.26 -0.6,-0.34 -2.27,-0.91 -6.51,0 -11.08,2.35 -4.65,2.38 -10.71,5.83 -16.79,14 -1.74,2.35 -3.29,4.8 -4.39,7.49 -1.51,3.71 -1.85,6.96 -1.1,9.34 0.42,1.32 1.21,2.34 2.34,2.95 1.4,0.68 3.29,0.91 5.64,0.53 5.56,-0.91 13.54,-5.26 23.57,-14.53 0.15,-0.11 0.53,0.04 0.83,0.34 0.3,0.34 0.42,0.72 0.27,0.87 -10.1,9.34 -18.12,13.69 -23.79,14.64 -2.54,0.42 -4.65,0.11 -6.28,-0.72 -1.85,-0.95 -3.14,-2.5 -3.78,-4.54 -0.79,-2.61 -0.45,-6.09 1.1,-9.95 1.1,-2.72 2.72,-5.22 4.46,-7.6 6.13,-8.21 12.22,-11.69 16.91,-14.07 4.73,-2.42 9.19,-3.37 11.76,-2.31 0.38,0.15 0.76,0.38 1.13,0.64 0.76,0.6 1.25,1.32 1.48,2.12 0.38,1.29 -0.08,2.8 -1.1,4.35 -0.98,1.48 -2.5,3.06 -4.31,4.46 -3.81,2.96 -8.88,5.38 -13.34,5.53 z"
   id="path20" />
	<path
   d="m 170.8,61.65 c 0.19,-0.15 0.57,0 0.87,0.34 0.3,0.34 0.42,0.72 0.23,0.87 -0.83,0.72 -2.19,2.35 -3.03,3.93 -0.53,1.06 -0.49,1.66 -0.11,1.85 1.55,0.23 5.75,-3.86 5.75,-3.9 0.15,-0.15 0.42,-0.45 0.72,-0.11 0.34,0.34 0.19,0.45 0.04,0.61 -0.04,0 -6.32,6.81 -7.94,3.97 -0.53,-0.95 -0.26,-2.23 0.38,-3.52 0.82,-1.62 2.22,-3.32 3.09,-4.04 z m 2.35,-1.09 c -0.15,0.19 -0.53,0.04 -0.83,-0.26 -0.3,-0.34 -0.45,-0.72 -0.3,-0.91 l 2.12,-2.42 c 0.15,-0.19 0.49,-0.04 0.83,0.27 0.3,0.34 0.42,0.72 0.3,0.91 z"
   id="path22" />
	<path
   d="m 175.72,62.48 c 0.11,-0.19 0.49,-0.11 0.79,0.19 0.34,0.3 0.49,0.72 0.38,0.91 l -0.95,1.7 c 2.04,-1.7 4.27,-3.37 5.11,-3.14 h 0.08 c 1.13,0.34 1.32,1.06 1.06,2 -0.11,0.42 -0.38,0.91 -0.64,1.48 -0.49,0.98 -1.06,2.08 -1.06,2.08 1.21,0.79 5.3,-2.8 5.33,-2.8 0.11,-0.15 0.53,-0.64 0.83,-0.3 0.34,0.3 0.11,0.38 -0.04,0.57 0,0 -4.12,4.88 -6.09,3.59 -1.7,-1.1 -0.87,-2.76 -0.15,-4.24 0.15,-0.3 0.3,-0.61 0.42,-0.91 -2.16,1.13 -7.19,5.94 -7.34,6.09 -0.11,0.15 -0.45,0.04 -0.76,-0.23 -0.3,-0.34 -0.49,-0.72 -0.38,-0.91 z"
   id="path24" />
	<path
   d="m 190.02,64.98 c -1.78,0.91 -3.78,1.13 -3.9,1.13 -2.57,5.52 7.64,0.83 8.81,-1.29 0.11,-0.23 0.49,-0.49 0.83,-0.19 0.3,0.3 0.3,0.45 0.19,0.68 -1.06,1.85 -6.96,5.94 -9.57,4.46 -1.29,-0.72 -2.08,-2.23 -1.78,-3.71 0.19,-0.95 0.76,-1.93 1.51,-2.8 0.76,-0.83 1.63,-1.63 2.46,-2.23 1.1,-0.76 2.12,-1.21 2.54,-1.13 0.34,0.08 0.64,0.26 0.91,0.57 0.38,0.42 0.53,0.91 0.45,1.36 -0.04,0.34 -0.19,0.68 -0.38,1.06 -0.41,0.8 -1.16,1.64 -2.07,2.09 z m -2.69,-0.6 c 0.53,-0.15 1.1,-0.38 1.7,-0.64 0.79,-0.42 1.48,-1.21 1.89,-1.93 0.08,-0.15 0.11,-0.26 0.19,-0.42 -0.42,0.19 -0.91,0.49 -1.48,0.91 -0.75,0.56 -1.62,1.28 -2.3,2.08 z"
   id="path26" />
	<path
   d="m 196.26,61.5 c 0.08,-0.19 0.45,-0.08 0.76,0.23 0.34,0.3 0.53,0.68 0.42,0.91 l -0.68,1.17 c 1.17,-1.13 2.31,-2.08 3.03,-2.35 2.34,-0.79 1.97,1.78 1.21,4.08 0.11,-0.08 0.26,-0.15 0.38,-0.19 0.34,-0.15 0.64,-0.26 0.91,-0.26 0.61,-0.04 1.1,0.26 1.44,0.98 0.19,0.42 0.19,1.06 -0.11,1.93 -0.04,0.08 4.05,-3.29 4.08,-3.29 0.15,-0.15 0.49,-0.57 0.79,-0.23 0.34,0.3 0.3,0.53 0.15,0.68 -0.04,0.04 -9.08,9.57 -6.24,1.78 0.04,-0.15 0.08,-0.27 0.11,-0.42 l -0.15,0.08 c -1.02,0.53 -2.35,1.63 -2.61,2.08 v 0.04 c -0.11,0.23 -0.45,0.15 -0.79,-0.15 -0.34,-0.3 -0.49,-0.72 -0.42,-0.91 0,-0.04 2.31,-4.96 2.19,-4.92 -2.04,0.72 -7.49,7.38 -7.53,7.41 -0.11,0.15 -0.45,0.04 -0.76,-0.23 -0.3,-0.3 -0.49,-0.72 -0.38,-0.91 z"
   id="path28" />
	<path
   d="m 214.12,63.96 c 0.15,0.38 0.04,0.6 -0.26,0.53 -0.3,-0.08 -0.68,-0.42 -0.83,-0.76 -0.76,-0.72 -2.61,0.15 -3.29,0.72 -1.4,1.13 -2.19,2.5 -2.61,4.24 1.32,-0.38 4.77,-4.39 4.77,-4.39 0.15,-0.15 0.49,-0.04 0.83,0.3 0.26,0.3 0.42,0.64 0.3,0.83 -0.08,0.19 -0.53,1.17 -0.3,2.23 0.15,0.91 5.07,-3.22 5.14,-3.25 0.15,-0.15 0.45,-0.34 0.76,-0.04 0.3,0.34 0.26,0.64 0.11,0.79 -2.5,2.23 -3.97,3.56 -4.99,4.08 -1.74,0.91 -3.06,0.38 -3.03,-1.47 -1.36,1.29 -2.76,2.46 -3.59,2.08 -0.3,-0.11 -0.53,-0.34 -0.76,-0.57 -0.38,-0.49 -0.53,-1.02 -0.45,-1.59 0.04,-0.45 0.19,-0.95 0.42,-1.44 0.49,-1.06 1.36,-2.23 2.34,-3.03 1.69,-1.38 4.79,-1.45 5.44,0.74 z"
   id="path30" />
</g>
<path
   class="st0"
   d="m 88.25,83.41972 h 12.81 l -17.9,-57.04 H 82.72 70.34 69.9 l -17.9,57.04 h 12.81 l 3.2,-10.18 h 17.03 z m -16.39,-22.4 4.68,-14.91 4.68,14.91 z"
   id="path34" />
<path
   class="st0"
   d="m 41.39,66.45972 c -2.94,2.9 -6.96,4.7 -11.4,4.7 -8.96,0 -16.25,-7.29 -16.25,-16.25 0,-8.96 7.29,-16.25 16.25,-16.25 4.4,0 8.38,1.77 11.31,4.63 l 8.64,-8.64 c -5.14,-5.07 -12.19,-8.21 -19.96,-8.21 -15.7,0 -28.48,12.77 -28.48,28.48 0,15.7 12.77,28.47 28.48,28.47 7.81,0 14.89,-3.17 20.04,-8.28 z"
   id="path36" />
<path
   class="st0"
   d="m 125.71,72.79972 v -0.06 h -1.63 l 20.36,-13.9 0.37,-0.23 -0.01,-0.32 -0.07,-10.7 -47.24,0.28 3.35,10.68 24.84,-0.15 -20.4,13.77 -0.14,0.09 0.14,0.46 3.6,10.71 h 16.25 c 8.8,0 15.97,7.16 15.97,15.97 0,8.8 -7.16,15.97 -15.97,15.97 -8.81,0 -15.97,-7.16 -15.97,-15.97 h -10.7 c 0,14.7 11.96,26.66 26.67,26.66 14.7,0 26.66,-11.96 26.66,-26.66 0.01,-14.5 -11.65,-26.28 -26.08,-26.6 z"
   id="path38" />
</svg>
